<svg width="76" height="76" viewBox="0 0 76 76" fill="none" xmlns="http://www.w3.org/2000/svg">
<path d="M49.8803 75H26.1242C12.2484 75 1 63.7516 1 49.8758V26.1242C1 12.2484 12.2484 1 26.1242 1H49.8803C63.7562 1 75.0045 12.2484 75.0045 26.1242V49.8803C75 63.7516 63.7516 75 49.8803 75Z" fill="black" stroke="black" stroke-width="0.8209" stroke-miterlimit="10"/>
<path d="M46.9583 32.8198C47.7013 32.3396 48.6662 32.0315 49.8622 31.9002L46.3377 37.3499C45.7261 36.7655 45.4181 36.077 45.4181 35.2932C45.4181 34.3057 45.93 33.4812 46.9583 32.8198Z" fill="black"/>
<path d="M26.0517 46.5507H20.4525V21.3766H26.0517C28.344 21.3766 30.2059 23.2385 30.2059 25.5353V42.3965C30.2059 44.6888 28.344 46.5507 26.0517 46.5507ZM37.8799 44.4487V39.4383V23.5692C37.8799 19.1116 34.2649 15.4965 29.8072 15.4965H12.7784V52.4308H26.695H29.8072C31.0213 52.4308 32.1765 52.159 33.2094 51.6788L37.8799 44.4487Z" fill="white"/>
<path d="M61.9306 44.349C61.097 42.845 59.892 41.6219 58.3155 40.6751C56.739 39.7237 54.1749 38.8177 50.6324 37.9615C47.2846 37.1642 45.1418 36.4348 44.2131 35.7734C44.0365 35.6466 43.8779 35.5152 43.7329 35.3793L39.8098 41.4588C40.0726 41.6717 40.3489 41.8665 40.6343 42.0522C42.0296 42.9447 44.2267 43.7737 47.2302 44.5302C50.578 45.3909 52.689 46.0025 53.5634 46.3694C54.4332 46.7319 55.081 47.1985 55.5068 47.7647C55.9326 48.3355 56.1455 49.0241 56.1455 49.835C56.1455 51.2122 55.5385 52.3674 54.3199 53.3006C53.0968 54.2338 51.4206 54.7004 49.2914 54.7004C44.9923 54.7004 43.3796 52.6211 42.6049 48.0637L35.2525 48.5122L34.795 48.5394C34.8176 48.7297 34.8403 48.9154 34.872 49.1011C35.9864 56.8885 40.7294 60.7799 49.0876 60.7799C53.9303 60.7799 57.4865 59.7289 59.7651 57.6178C62.0393 55.5113 63.1763 52.9065 63.1763 49.8078C63.1763 47.6696 62.7596 45.8485 61.9306 44.349ZM51.6652 31.0077C52.6936 31.7688 52.7978 33.9659 52.5713 35.2706L59.8195 35.4835C60.6168 32.1267 60.8343 28.5524 58.5284 26.6905C56.6529 25.1683 54.1704 24.2668 51.0944 23.986L47.2574 29.9295C47.7149 29.8797 48.2087 29.8525 48.7388 29.8525C50.6369 29.8525 50.6369 30.2466 51.6652 31.0077Z" fill="white"/>
</svg>
